      <svg version="1.1" baseProfile="full" xmlns:"http://www.w3.org/2000/svg" width="300" height="200">
         <rect x="10" y="80" width="30" height="30"/>
 <rect x="45" y="80" width="30" height="30"></rect>
 <rect x="80" y="80" width="30" height="30"/>
 <rect x="115" y="80" width="30" height="30"/>
 <rect x="150" y="80" width="30" height="30"/>

 <rect x="10" y="45" width="30" height="30"/>
 <rect x="45" y="45" width="30" height="30"/>
 <rect x="80" y="45" width="30" height="30"/>
 <rect x="115" y="45" width="30" height="30"/>
 <rect x="150" y="45" width="30" height="30"/>

 <rect x="10" y="80" width="30" height="30"/>
 <rect x="45" y="80" width="30" height="30"/>
 <rect x="80" y="80" width="30" height="30"/>
 <rect x="115" y="80" width="30" height="30"/>
 <rect x="150" y="80" width="30" height="30"/>

 <rect x="10" y="115" width="30" height="30"/>
 <rect x="45" y="115" width="30" height="30"/>
 <rect x="80" y="115" width="30" height="30"/>
 <rect x="115" y="115" width="30" height="30"/>
 <rect x="150" y="115" width="30" height="30"/>

 <rect x="10" y="150" width="30" height="30"/>
 <rect x="45" y="150" width="30" height="30"/>
 <rect x="80" y="150" width="30" height="30"/>
 <rect x="115" y="150" width="30" height="30"/>
 <rect x="150" y="150" width="30" height="30"/>
      </svg>