<svg id="grid" version="1.1" xmlns="http://www.w3.org/2000/svg" width="100" height="100"><rect id="sq00" width="14.4" height="14.4" x="0" y="0"></rect><rect id="sq01" width="14.4" height="14.4" x="18" y="0"></rect><rect id="sq02" width="14.4" height="14.4" x="36" y="0"></rect><rect id="sq03" width="14.4" height="14.4" x="54" y="0"></rect><rect id="sq04" width="14.4" height="14.4" x="72" y="0"></rect><rect id="sq10" width="14.4" height="14.4" x="0" y="18"></rect><rect id="sq11" width="14.4" height="14.4" x="18" y="18"></rect><rect id="sq12" width="14.4" height="14.4" x="36" y="18"></rect><rect id="sq13" width="14.4" height="14.4" x="54" y="18"></rect><rect id="sq14" width="14.4" height="14.4" x="72" y="18"></rect><rect id="sq20" width="14.4" height="14.4" x="0" y="36"></rect><rect id="sq21" width="14.4" height="14.4" x="18" y="36"></rect><rect id="sq22" width="14.4" height="14.4" x="36" y="36"></rect><rect id="sq23" width="14.4" height="14.4" x="54" y="36"></rect><rect id="sq24" width="14.4" height="14.4" x="72" y="36"></rect><rect id="sq30" width="14.4" height="14.4" x="0" y="54"></rect><rect id="sq31" width="14.4" height="14.4" x="18" y="54"></rect><rect id="sq32" width="14.4" height="14.4" x="36" y="54"></rect><rect id="sq33" width="14.4" height="14.4" x="54" y="54"></rect><rect id="sq34" width="14.4" height="14.4" x="72" y="54"></rect><rect id="sq40" width="14.4" height="14.4" x="0" y="72"></rect><rect id="sq41" width="14.4" height="14.4" x="18" y="72"></rect><rect id="sq42" width="14.4" height="14.4" x="36" y="72"></rect><rect id="sq43" width="14.4" height="14.4" x="54" y="72"></rect><rect id="sq44" width="14.4" height="14.4" x="72" y="72"></rect></svg>